<?xml version="1.0" encoding="utf-8"?>
<!-- Generator: Adobe Illustrator 24.0.0, SVG Export Plug-In . SVG Version: 6.00 Build 0)  -->
<svg version="1.1"
	 id="svg40450" inkscape:version="0.91 r13725" sodipodi:docname="lider.svg" xmlns:cc="http://creativecommons.org/ns#" xmlns:dc="http://purl.org/dc/elements/1.1/" xmlns:inkscape="http://www.inkscape.org/namespaces/inkscape" xmlns:rdf="http://www.w3.org/1999/02/22-rdf-syntax-ns#" xmlns:sodipodi="http://sodipodi.sourceforge.net/DTD/sodipodi-0.dtd" xmlns:svg="http://www.w3.org/2000/svg"
	 xmlns="http://www.w3.org/2000/svg" xmlns:xlink="http://www.w3.org/1999/xlink" x="0px" y="0px" viewBox="0 0 960.4 498.6"
	 style="enable-background:new 0 0 960.4 498.6;" xml:space="preserve">
<style type="text/css">
	.st0{fill:#FDBB30;}
	.st1{fill-rule:evenodd;clip-rule:evenodd;fill:#FFFFFF;}
	.st2{fill:#FFB819;}
</style>
<title  id="title41074">Líder</title>
<sodipodi:namedview  bordercolor="#666666" borderopacity="1.0" fit-margin-bottom="20" fit-margin-left="20" fit-margin-right="20" fit-margin-top="20" id="base" inkscape:current-layer="layer1" inkscape:cx="1382.4982" inkscape:cy="730.53173" inkscape:document-units="px" inkscape:pageopacity="0.0" inkscape:pageshadow="2" inkscape:showpageshadow="false" inkscape:window-height="715" inkscape:window-maximized="1" inkscape:window-width="1366" inkscape:window-x="-8" inkscape:window-y="-8" inkscape:zoom="0.15637026" pagecolor="#ffffff" showgrid="false" units="px">
	</sodipodi:namedview>
<g>
	<g>
		<path class="st0" d="M138.4,245.4c-7.8,3.8-24.9,9.5-46.8,9.5c-49.2,0-81.4-33.5-81.4-83.4c0-50.3,34.3-87,87.7-87
			c17.5,0,33.2,4.4,41.2,8.7l-6.6,22.8c-7.3-3.9-18.4-7.9-34.7-7.9c-37.2,0-57.7,28-57.6,61.8c0,37.8,24.3,61.1,56.8,61.1
			c16.6,0,27.9-4.2,36.3-7.8L138.4,245.4z"/>
		<path class="st0" d="M174.5,88.2l35.7,96.5c3.8,10.8,7.8,23.6,10.5,33.3h0.8c2.9-9.6,6.5-22.1,10.4-34l32.3-95.8h31.5L251,204.4
			c-21.1,56.1-35.7,84.7-55.9,102.4c-14.7,12.7-29.1,17.7-36.4,19.1l-7.4-24.8c7.5-2.4,17.1-7,26-14.5c8-6.5,17.9-18,24.8-33.1
			c1.5-3.1,2.3-5.3,2.3-7.2c0-1.7-0.5-4-2.1-7.6L142.2,88.2H174.5z"/>
		<path class="st0" d="M304.8,251.4c0.8-11.2,1.4-27.6,1.4-42.1V11.8h29.4v102.6h0.7c10.4-18.4,29.3-29.9,55.6-29.9
			c40.6,0,69,33.7,68.9,83.1c0,58.5-37.1,87.5-73.5,87.5c-23.5,0-42.4-9.3-54.7-30.5h-0.8l-1.5,26.8H304.8z M335.6,185.9
			c0,3.7,0.4,7.4,1.2,10.7c5.6,20.6,23.1,34.7,44.5,34.7c31.2,0,49.6-25.3,49.6-62.7c0-32.8-17-60.9-48.7-60.9
			c-20.1,0-39,14.1-44.9,36.5c-0.9,3.6-1.7,7.6-1.7,12.3V185.9z"/>
		<path class="st0" d="M501.6,175.1c0.6,40.1,26,56.7,55.8,56.7c21.2,0,34.2-3.8,45.2-8.4l5.2,21.1c-10.4,4.7-28.5,10.4-54.4,10.4
			c-50.1,0-80.3-33.4-80.3-82.4c0-49.5,29.1-88.1,76.8-88.1c53.2,0,67.2,46.7,67.2,76.8c0,6.2-0.4,10.7-1,13.9L501.6,175.1
			L501.6,175.1z M588.5,153.8c0.3-18.7-7.7-48-40.9-48c-30.3,0-43.2,27.4-45.6,48H588.5z"/>
		<path class="st0" d="M637.5,138.9c0-19.3-0.5-35.7-1.4-50.8h26l1.1,32h1.1c7.6-21.9,25.6-35.7,45.4-35.7c3.2,0,5.5,0.2,8.3,0.8
			v27.9c-3-0.6-6-0.9-10.1-0.9c-20.9,0-35.7,15.8-39.7,38c-0.8,4.2-1.2,9-1.2,13.9v87.2h-29.5L637.5,138.9L637.5,138.9z"/>
	</g>
	<g>
		<path class="st1" d="M366.3,309.1c0,10.5-8.8,14.9-19.3,14.9s-19.3-6.6-19.3-14.9s8.8-14.9,19.3-14.9
			C357.5,294.2,366.3,300.8,366.3,309.1 M293.2,292.9c0,0-15.3,51.7-25.4,93.7l-4.4,16.2c-1.8,7.4,3.1,7.9,3.1,7.9H295l-7,25.8
			h-31.5h0.4c0,0-15.3,0.9-21.9-6.6c-7-7.4-5.3-16.2-4.8-20.6c0.4-3.5,14-54.7,14-54.7l17.5-61.7
			C261.6,292.9,293.2,292.9,293.2,292.9z M495,292.9L471.8,387c-14.4,48.6-63.1,49.5-63.1,49.5c-28,2.2-52.5-9.2-55.2-34.2
			c-5.3-52.5,51.2-85.4,100.7-65.2c3.1-14.9,8.8-28.9,11.4-44.2C465.7,292.9,495,292.9,495,292.9z M391.7,369.5
			c-5.7,9.2-10.1,26.7-3.9,38.1c6.6,11.8,29.3,12.3,40.3,3.9c11.8-9.2,15.8-35.5,20.1-51.7C429.8,342.8,401.8,353.3,391.7,369.5
			 M512.5,391c-5.3,33.7,45.5,28.5,62.2,15.8c-1.8,7.9-2.2,17.1-3.9,24.5c-40.3,12.3-85.4,3.5-89.3-32
			c-4.8-42.9,30.7-65.7,67.9-68.3c21-1.8,45.5,2.2,51.7,17.1c3.9,9.2,0.4,21-4.4,27.1C581.7,393.2,541.4,397.6,512.5,391
			 M542.3,374.3c12.7-0.9,35-5.3,31.1-17.1c-2.6-7.4-17.1-8.3-25.8-7c-13.6,2.6-23.6,12.7-28.9,22.3
			C524.8,374.3,533.1,375.2,542.3,374.3 M698.2,332.8c0,0-7.9,22.8-8.3,23.2c-8.3-2.2-11.8-7-22.8-5.7
			c-28.9,3.1-35.5,39.4-40.7,68.7l-2.6,17.5H594c7.9-33.7,16.2-70.5,25-104.2h29.3l-1.8,8.3C658.8,332.8,679.4,327.9,698.2,332.8
			 M357.1,333.2c-7.4,34.2-16.6,69.2-23.6,103.3h-30.2c6.1-27.1,12.7-54.3,18.8-81.4h-15.8l5.7-21.9
			C312,333.2,357.1,333.2,357.1,333.2z"/>
		<path class="st2" d="M841.4,324.9c5.7,0,10.5-3.1,10.9-7l5.7-63.9c0-6.1-7.4-11.4-16.6-11.4s-16.6,5.3-16.6,11.4l5.7,63.9
			C830.9,321.8,835.7,324.9,841.4,324.9z M806.8,344.6c3.1-4.8,2.6-10.5-0.4-13.1l-52.5-36.8c-5.3-3.1-13.6,0.4-18.4,8.8
			c-4.8,7.9-3.9,17.1,1.8,20.1l58.2,27.1C798.9,352.5,804.1,349.8,806.8,344.6z M876,344.6c3.1,4.8,7.9,7.4,11.4,6.1l58.2-27.1
			c5.7-3.1,6.1-12.3,1.8-20.1c-4.8-7.9-12.7-11.8-18.4-8.8l-52.5,36.8C873.3,334.1,873.3,339.8,876,344.6z M841.4,404.6
			c5.7,0,10.5,3.1,10.9,7l5.7,63.9c0,6.1-7.4,11.4-16.6,11.4s-16.6-5.3-16.6-11.4l5.7-63.9C830.9,407.6,835.7,404.6,841.4,404.6z
			 M876,384.9c3.1-4.8,7.9-7.4,11.4-6.1l58.2,27.1c5.7,3.1,6.1,12.3,1.8,20.1c-4.8,7.9-12.7,11.8-18.4,8.8L876.5,398
			C873.3,395.4,873.3,389.7,876,384.9z M806.8,384.9c3.1,4.8,2.6,10.5-0.4,13.1l-52.5,36.8c-5.3,3.1-13.6-0.9-18.4-8.8
			c-4.8-7.9-3.9-17.1,1.8-20.1l58.2-27.1C798.9,377,804.1,379.6,806.8,384.9z"/>
	</g>
</g>
</svg>
